@startuml maquinaEstadoEventoSismico
hide empty description
'Casos de uso:
'23: Registrar resultado de revisión manual
'24: Registrar evento sísmico
'25: Modificar evento sísmico
'27: Anular evento sísmico
'38: Verificar eventos sísmicos auto detectados
'39: Cerrar evento sísmico
'67: Registrar resultado de revisión de un evento sismico derivado

[*]-->AutoDetectado : 24. \n new() [magnitudSismo < 4.0]
[*]-->AutoConfirmado : 24. \n new() [magnitudSismo >= 4.0]
AutoDetectado-->PendienteRevision :  25. \n revisar() \n [tiempoEspera=5min] 
PendienteRevision-->BloqueadoRevision: 25 \n bloquear() [revisionSi=Si \n & tiempoEspera<5min]
PendienteRevision-->EventoSinRevision: 27. bloquear() [revisionSi=No \n & tiempoEspera=5min]
AutoDetectado --> BloqueadoRevision: 25. \n revisar() \n [tiempoEspera<5min]
BloqueadoRevision-->PendienteRevision: cancelar()
BloqueadoRevision-->Confirmado: 23.\n confirmarDirecto()
BloqueadoRevision-->Rechazado:  23.\n rechazar()
BloqueadoRevision-->DerivadoExperto:  23.\n derivar()
DerivadoExperto-->Confirmado: 67. \n confirmarDerivado()
DerivadoExperto-->Rechazado: 67. \n rechazar()
Confirmado-->PendienteCierre: 23. \n pendienteCerrar()
AutoConfirmado-->PendienteCierre: 24.\n pendienteCerrar()
PendienteCierre --> Cerrado: 39. \n cerrar()
Cerrado --> [*]
EventoSinRevision --> [*]
Rechazado --> [*]
@enduml

@startuml Parte_Dinámica_CU_23
skinparam roundcorner 20
skinparam maxmessagesize 60
autonumber
actor "__:AnalistaEnSismos__" as AES
create boundary "__:PantallaRegistrarResultado__" as PRR
AES --> PRR : opcRegistrarResultadoManual()
PRR -> PRR : abrirVentana()
create control "__:GestorRegistrarResultado__" as GRR
PRR --> GRR : newRevisiónManual()
GRR -> GRR : buscarEventosSísmicosSinRevision()
loop Eventos Sísmicos Auto Detectados
else Mientras existan eventos sísmicos
    entity "__:EventoSísmico__" as ES #LightCoral
    GRR -> ES : esPendienteRevisión()
    entity "__Evento:Estado__" as E
    ES -> E : sosPendienteRevisión()
    GRR -> ES : esAutodetectado()
    ES -> E : sosAutodetectado()
    GRR -> ES : getDatos()
    ES -> ES : getFechaHoraOcurrenciaEvento()
    ES -> ES : getLatitudEpicentro()
    ES -> ES : getLongitudEpicentro()
    ES -> ES : getLatitudHipocentro()
    ES -> ES : getLongitudHipocentro()
    ES -> ES : getValorMagnitud()
end
GRR -> GRR : ordenarEventosSísmicos()
GRR -> PRR : solicitarSelecciónEventoSísmico()
AES -> PRR : tomarSelecciónEventoSísmico()
PRR -> GRR : tomarSelecciónEventoSísmico()
GRR -> GRR : buscarEstadoBloqueadoEnRevision()
entity "__:Estado__" as Es #LightCoral
loop Buscar estado bloqueado en revisión
else Mientras existan estados
    GRR -> Es : sosÁmbitoEventoSísmico()
    GRR -> Es : sosBloqueadoEnRevisión()
end
GRR -> GRR : getFechaHoraActual()
GRR -> GRR : buscarEmpleadoLogueado()
entity "__Actual:Sesión__" as ASS
GRR -> ASS : getUsuarioLogueado()
entity "__Logueado:Usuario__" as US
ASS -> US : getEmpleado()
GRR -> GRR : bloquearEventoSísmico()
entity "__Selecc:EventoSísmico__" as SES
GRR -> SES : bloquear() 
loop Buscar último cambio estado
else Mientras existan cambios de estado
    entity "__:CambioEstado__" as CE #LightCoral
    SES -> CE : esEstadoActual() 
end
entity "__Actual:CambioEstado__" as ACE
SES -> ACE : setFechaHoraFin()
SES -> SES : crearCambioEstado()
create entity "__Bloqueado:CambioEstado__" as NCE
SES --> NCE: new()
SES -> SES : setEstado()
GRR -> GRR : buscarDatosSísmicos()
GRR -> SES : getDatosSísmicos()
loop Valores alcanzados sísmo
else Mientras existan series temporales
    entity "__:SerieTemporal__" as ST #LightCoral
    SES -> ST: getFecha()
    SES -> ST : getMuestrasSismicas()
    entity "__:MuestraSísmica__" as MS
    ST -> MS : getFecha()
    loop Valores muestras sísmicas
    else Mientras existan muestras sísmicas
        ST -> MS : getDetalleMuestraSismica()
        loop Valores detalle muestras sísmicas
        else Mientras existan detalles muestras sísmicas
            entity "__:DetalleMuestraSísmica__" as DMS
            MS -> DMS :  getValor()
            entity "__:TipoDeDato__" as TD
            DMS -> TD :  getDenominación()
            DMS -> TD :  getNombreUnidadMedida()
            DMS -> TD :  getValorUmbral()
        end
    end
end
entity "__:AlcanceSismo__" as AS
SES -> AS : getNombre()
entity "__:ClasificaciónSismo__" as CS
SES -> CS : getNombre()
entity "__:OrigenDeGeneración__" as OG
SES -> OG : getNombre()
GRR -> GRR: ordenarPorCodigo()
GRR -> ST : *getEstacionSismografica()
loop Buscar Sismografo
else mientras haya sismografos
    entity "__:Sismografo__" as S #LightCoral
    ST -> S : sosMiSismografo()
    ST -> S : getDatosEstacion()
    entity "__Sismografo:Estacion Sismologica__" as SSE
    S -> SSE : getCodigo()
    S -> SSE : getNombre()
end

GRR -> GRR : llamarCUGenerarSismograma()
create participant "GenerarSismograma" as GS
GRR -> GS : generarSismograma()
GRR -> PRR : mostrarDatos()
GRR -> PRR : solicitarSelecciónMapa()
AES -> PRR : tomarSelecciónMapa()
PRR -> GRR : tomarSeleccionMapa()
GRR -> PRR : solicitarModificaciónDatosES()
AES -> PRR : tomarModificaciónDatosES()
PRR -> GRR : tomarModificaciónDatosES()
GRR -> PRR : solicitarAcciónSobreEvento()
AES -> PRR : tomarAcciónSobreEvento()
PRR -> GRR : tomarAcciónSobreEvento()
GRR -> GRR : validarDatos()
GRR -> GRR : buscarEstadoRechazado()
loop Buscar estado rechazado
else Mientras existan estados
    GRR -> Es : sosÁmbitoEventoSísmico()
    GRR -> Es : sosRechazado()
end
GRR -> GRR :getFechaHoraActual()
GRR -> GRR : rechazarEventoSísmico()
entity "__Selecc:EventoSísmico__" as SES
GRR -> SES : rechazar()
loop Buscar último cambio estado
else Mientras existan cambios de estado
    SES -> CE : esEstadoActual() 
end
SES -> NCE : setFechaHoraFin()
SES -> SES : crearCambioEstado()
create entity "__Rechazado:CambioEstado__" as RCE
SES --> RCE : new()
SES -> SES : setEstado()
GRR -> GRR : finCU()
@enduml

@startuml Parte_Estática_CU_23
hide <<Entity>> circle
hide <<Boundary>> circle
hide <<Control>> circle
class PantallaRegistrarRevisión<<Boundary>>{
    - opcCancelar
    - lblFechaHoraOcurrencia
    - lblLatitudEpicentro
    - lblLongitudEpicentro
    - lblLatidudHipocentro
    - lblLongitudHipocentro
    - opcVisualizarMapa
    - inputMagnitud
    - inputAlcance
    - inputOrigenGeneración
    - opcNoModificarDatos
    - opcConfirmarEvento
    - opcRechazarEvento
    - opcSolicitarRevisiónAExperto
    + 1. opcRegistrarResultadoManual()
    + 2. abrirVentana()
    + 17. solicitarSelecciónEventoSísmico()
    + 18. tomarSeleccionEventoSismico()
    + 55. mostrarDatos()
    + 56. solicitarSelecciónMapa()
    + 57. tomarSeleccionMapa()
    + 59. solicitarModificacionDatosES()
    + 60. tomarModificaciónDatosES()
    + 62. solicitarAcciónSobreEvento()
    + 63. tomarAcciónSobreEvento()
}

class GestorRegistrarRevisión<<Control>>{
    - fechaHoraOcurrencia
    - latitudEpicentro
    - longitudEpicentro
    - latidudHipocentro
    - longitudHipocentro
    - listaEventoSísmicoSinRevisión
    - eventoSísmicoSeleccionado
    - fechaHoraActual
    - ASLogueado
    - estadoRechazado
    - estadoBloqueado
    - listaDatosSísmicos
    - listaSeriesTemporales
    - estaciónSismográfica
    - sismograma
    - mapaSeleccionado
    - acciónSobreEvento
    - estaciónSismográficaModificada
    + 3. newRevisiónManual()
    + 4. buscarEventosSísmicosSinRevision()
    + 16. ordenarEventosSísmicos()
    + 19. tomarSelecciónEventoSísmico()
    + 20. buscarEstadoBloqueadoEnRevision()
    + 23. getFechaHoraActual()
    + 24. buscarEmpleadoLogueado()
    + 27. bloquearEventoSismico()
    + 34. buscarDatosSismicos()
    + 47. ordenarPorCodigo() 
    + 53. llamarCUGenerarSismograma()
    + 58. tomarSelecciónMapa()
    + 61. tomarModificaciónDatosES()
    + 64. tomarAcciónSobreEvento()
    + 65. validarDatos()
    + 66. buscarEstadoRechazado()
    + 69. getFechaHoraActual()
    + 70. rechazarEventoSismico()
    + 77. finCU()
}
' + 46. buscarDatosEstacion()

class EventoSísmico<<Entity>>{
    - fechaHoraOcurrencia
    - latitudEpicentro
    - longitudEpicentro
    - latidudHipocentro
    - longitudHipocentro
    - valorMagnitud
    + 5. esPendienteRevisión()
    + 7. esAutodetectado()
    + 9. getDatos()
    + 10. getFechaHoraOcurrenciaEvento()
    + 11. getLatitudEpicentro()
    + 12. getLongitudEpicentro()
    + 13. getLatitudHipocentro()
    + 14. getLongitudHipocentro()
    + 15. getValorMagnitud()
    + 28. bloquear()
    + 31. crearCambioEstado()
    + 32. new()
    + 33. setEstado()
    + 35. getDatosSísmicos()
    + 71. rechazar()
    + 74. crearCambioEstado()
    + 76. setEstado()
    + revisar()
    + derivar()
    + confirmarDerivado()
    + confirmarDirecto()
    + pendienteCerrar()
    + cerrar()
}

class Estado<<Entity>>{
    - ámbito
    - nombre
    + 6. sosPendienteRevisión()
    + 8. sosAutodetectado()
    + 21. sosÁmbitoEventoSísmico()
    + 22. sosBloqueadoEnRevisión()
    + 67. sosAmbitoEventoSismico()
    + 68. sosRechazado()
}

class CambioEstado<<Entity>>{
    - fechaHoraInicio
    - fechaHoraFin
    + 29. esEstadoActual()
    + 30. setFechaHoraFin()
    + 32. new()
    + 72. esEstadoActual()
    + 73. setFechaHoraFin()
    + 75. newRechazadoCambio()
}

class AlcanceSismo<<Entity>>{
    - nombre
    + 44. getNombre()
}

class ClasificaciónSismo<<Entity>>{
    - nombre
    + 45. getNombre()
}

class OrigenDeGeneración<<Entity>>{
    - nombre
    + 46. getNombre()
}

class SerieTemporal<<Entity>>{
    + 36. getFecha()
    + 37. getMuestrasSismicas()
    + 48. getEstaciónSismográfica()
}

class MuestraSísmica<<Entity>>{
    + 38. getFecha()
    + 39. getDetalleMuestraSismica()
}

class DetalleMuestraSísmica<<Entity>>{
    + 40. getValor()
}

class TipoDeDato<<Entity>>{
    - denominación
    - nombreUnidadMedida
    - valorUmbral
    + 41. getDenominación()
    + 42. getNombreUnidadMedida()
    + 43. getValorUmbral()
}

class Sesion<<Entity>>{
    - fechaHoraInicio
    - fechaHoraFin
    + 25. getUsuarioLogueado()
}

class Usuario<<Entity>>{
    + 26. getEmpleado()
}

class Empleado<<Entity>>{
    - nombre
    - apellido
    - mail
    - telefono 
}

class Sismografo<<Entity>>{
    + 49. sosMiSismográfo()
    + 50. getDatosEstación()
}

class EstaciónSismológica<<Entity>>{
    - nombre
    - código
    + 51. getCodigo()
    + 52. getNombre()
}
Sesion "usuario" --> "1" Usuario
Usuario "empleado" --> "1" Empleado
PantallaRegistrarRevisión ..> GestorRegistrarRevisión
GestorRegistrarRevisión ..> Sesion
GestorRegistrarRevisión ..> PantallaRegistrarRevisión
GestorRegistrarRevisión ..> EventoSísmico
EventoSísmico "estado" --> "1" Estado
EventoSísmico "cambioEstado" --> "1..*" CambioEstado
EventoSísmico "alcanceSismo" --> "1" AlcanceSismo
EventoSísmico "clasificaciónSismo" --> "1" ClasificaciónSismo
EventoSísmico "origenDeGeneración" --> "1" OrigenDeGeneración
EventoSísmico "serieTemporal" --> "1..*" SerieTemporal
CambioEstado "empleado" --> "1" Empleado
CambioEstado "estado" --> "1" Estado
SerieTemporal "muestraSísmica" o-- "1..*" MuestraSísmica
SerieTemporal ..> Sismografo
Sismografo "serieTemporal" --> "1..*" SerieTemporal 
Sismografo "estaciónSismológica" --> "1" EstaciónSismológica
MuestraSísmica "detalleMuestraSísmica" o-- "1..*" DetalleMuestraSísmica
DetalleMuestraSísmica "tipoDeDato" --> "1" TipoDeDato
@enduml 

@startuml Parte_Estática_CU_23_State_Parte1
left to right direction
hide <<Entity>> circle
hide <<Boundary>> circle
hide <<Control>> circle
hide <<State>> circle
hide <<Abstract>> circle

class GestorRegistrarRevisión<<Control>>{
    - fechaHoraOcurrencia: DateTime
    - latitudEpicentro: Float
    - longitudEpicentro: Float
    - latidudHipocentro: Float
    - longitudHipocentro: Float
    - listaEventoSísmicoSinRevisión: EventoSismico[]
    - eventoSísmicoSeleccionado: EventoSismico
    - fechaHoraActual: DateTime
    - ASLogueado: Empleado
    + 20. bloquearEventoSismico(): void
    + 21. getFechaHoraActual(): DateTime
    + 22. buscarEmpleadoLogueado(): Empleado
}

class Sesion<<Entity>>{
    - fechaHoraInicio: DateTime
    - fechaHoraFin: DateTime
    + 23. getUsuarioLogueado(): Empleado
}

class Usuario<<Entity>>{
    - nombreUsuario: String
    - contraseña: String
    + 24. getEmpleado(): Empleado
}

class EventoSismico<<Entity>>{
    - fechaHoraOcurrencia: DateTime
    - latitudEpicentro: Float
    - longitudEpicentro: Float
    - latidudHipocentro: Float
    - longitudHipocentro: Float
    - valorMagnitud: Float 
    + 28. bloquear(fechaHora: Datetime, empleado: Empleado) : void
    + 34. setEstado(estado: Estado) : void
    + 35. agregarCambioEstado(cambioEstado: CambioEstado) : void
    + revisar(): void
    + derivar(): void
    + confirmarDerivado(): void
    + confirmarDirecto(): void
    + pendienteCerrar(): void
    + cerrar(): void
}

class Estado<<Abstract>>{
    - ámbito: String
    - nombre: String
    ' Preguntar AutoDetectado y AutoConfirmado
    ' que arrancan con el new()
    + rechazar() : Rechazado
    ' Preguntar estos dos pases
    + bloquear() : Bloqueado
    + bloquear() : EventoSinRevisión
    ' Preguntar estos dos pases
    + revisar() : PendienteRevision
    + revisar() : BloqueadoRevision
    + derivar() : DerivadoExperto
    + confirmarDerivado() : Confirmado
    + confirmarDirecto() : Confirmado
    + pendienteCerrar() : PendienteCierre
    + cerrar() : Cerrado
}

class PendienteRevision<<State>>{
    + revisar() : PendienteRevision
    + 26.bloquear(fechaHora: Datetime, empleado: Empleado,\n cambiosEstado: CambioEstado[],\n this: EventoSísmico) : BloqueadoRevisión
    + 27.cerrarCambioEstado() : void
    + 30.crearBloqueadoRevisión() : void
    + 32.crearCambioEstado() : CambioEstado
}

class CambioEstado<<Entity>>{
    - fechaHoraInicio: DateTime
    - fechaHoraFin: DateTime
    - empleado: Empleado
    + 28. esEstadoActual(): boolean
    + 30. setFechaHoraFin(fechaHora: Datetime, empleado: Empleado) : void
    + 33. new(fechaHora: Datetime, estado: Estado, empleado: Empleado) : CambioEstado
}
class AutoDetectado<<State>>{
    + new() : AutoDetectado
}

class AutoConfirmado<<State>>{
    + new() : AutoConfirmado
}

class BloqueadoRevisión<<State>>{
    + revisar() : BloqueadoRevisión
    + bloquear() : BloqueadoRevisión
    + rechazar(fechaHora: Datetime, empleado: Empleado,\n cambiosEstado: CambioEstado,\n this: EventoSísmico) : Rechazado
    + cerrarCambioEstado() : void
    + crearEstadoRechazado() : void
    + crearCambioEstado() : void
}

class EventoSinRevisión<<State>>{
    + bloquear() : EventoSinRevisión
}

class DerivadoExperto<<State>>{
    + derivar() : DerivadoExperto
}

class Rechazado<<State>>{
    + rechazar() : Rechazado
}

class Confirmado<<State>>{
    + confirmarDerivado() : Confirmado
}

class PendienteCierre<<State>>{
    + pendienteCerrar() : PendienteCierre
}

class Cerrado<<State>>{
    + cerrar() : Cerrado
}

GestorRegistrarRevisión ..> EventoSismico
EventoSismico "estado" --> "1" Estado
Sesion --> Usuario
GestorRegistrarRevisión .left.> Sesion
EventoSismico "cambioEstado" -down-> "1..*" CambioEstado
CambioEstado "estado" --> "1" Estado
AutoDetectado ..|> Estado
AutoConfirmado .left.|> Estado
PendienteRevision .down.|> Estado
PendienteRevision ..> BloqueadoRevisión
Estado <|.. BloqueadoRevisión
Estado <|.. EventoSinRevisión
Estado <|.. DerivadoExperto
Estado <|.. Rechazado
Estado <|.. Confirmado
Estado <|.. PendienteCierre
Estado <|.. Cerrado
EventoSismico ..>PendienteRevision
EventoSismico <..PendienteRevision
PendienteRevision..>CambioEstado
@enduml
@startuml Parte_Estática_CU_23_State_Parte2
left to right direction
hide <<Entity>> circle
hide <<Boundary>> circle
hide <<Control>> circle
hide <<State>> circle
hide <<Abstract>> circle

class GestorRegistrarRevisión<<Control>>{
    - fechaHoraOcurrencia: DateTime
    - latitudEpicentro: Float
    - longitudEpicentro: Float
    - latidudHipocentro: Float
    - longitudHipocentro: Float
    - listaEventoSísmicoSinRevisión: EventoSismico[]
    - eventoSísmicoSeleccionado: EventoSismico
    - fechaHoraActual: DateTime
    - ASLogueado: Empleado
    + 68. rechazarEventoSismico(): void
    + 69. getFechaHoraActual(): DateTime
    + 22. buscarEmpleadoLogueado(): Empleado
}

class EventoSismico<<Entity>>{
    - fechaHoraOcurrencia: DateTime
    - latitudEpicentro: Float
    - longitudEpicentro: Float
    - latidudHipocentro: Float
    - longitudHipocentro: Float
    - valorMagnitud: Float 
    + 70. rechazar(fechaHora: Datetime, empleado: Empleado) : void
    + 79. setEstado(estado: Estado) : void
    + 80. agregarCambioEstado(cambioEstado: CambioEstado) : void
    + revisar(): void
    + derivar(): void
    + confirmarDerivado(): void
    + confirmarDirecto(): void
    + pendienteCerrar(): void
    + cerrar(): void
}

class Estado<<Abstract>>{
    - ámbito: String
    - nombre: String
    ' Preguntar AutoDetectado y AutoConfirmado
    ' que arrancan con el new()
    + rechazar() : Rechazado
    ' Preguntar estos dos pases
    + bloquear() : Bloqueado
    + bloquear() : EventoSinRevisión
    ' Preguntar estos dos pases
    + revisar() : PendienteRevision
    + revisar() : BloqueadoRevision
    + derivar() : DerivadoExperto
    + confirmarDerivado() : Confirmado
    + confirmarDirecto() : Confirmado
    + pendienteCerrar() : PendienteCierre
    + cerrar() : Cerrado
}

class PendienteRevision<<State>>{
    + revisar() : PendienteRevision
    + bloquear() : BloqueadoRevisión
    + cerrarCambioEstado() : void
    + crearBloqueadoRevisión() : void
    + crearCambioEstado() : CambioEstado
}

class CambioEstado<<Entity>>{
    - fechaHoraInicio: DateTime
    - fechaHoraFin: DateTime
    - empleado: Empleado
    + 73. esEstadoActual(): boolean
    + 74. setFechaHoraFin(fechaHora: Datetime, empleado: Empleado) : void
    + 78. new(fechaHora: Datetime, estado: Estado, empleado: Empleado) : CambioEstado
}
class AutoDetectado<<State>>{
    + new() : AutoDetectado
}

class AutoConfirmado<<State>>{
    + new() : AutoConfirmado
}

class BloqueadoRevision<<State>>{
    + revisar() : BloqueadoRevisión
    + bloquear() : BloqueadoRevisión
    + 71. rechazar(fechaHora: Datetime, empleado: Empleado,\n cambiosEstado: CambioEstado,\n this: EventoSísmico) : Rechazado
    + 72. cerrarCambioEstado() : void
    + 75. crearEstadoRechazado() : void
    + 77. crearCambioEstado() : void
}

class EventoSinRevisión<<State>>{
    + bloquear() : EventoSinRevisión
}

class DerivadoExperto<<State>>{
    + derivar() : DerivadoExperto
}

class Rechazado<<State>>{
    + 76. rechazar() : Rechazado
}

class Confirmado<<State>>{
    + confirmarDerivado() : Confirmado
}

class PendienteCierre<<State>>{
    + pendienteCerrar() : PendienteCierre
}

class Cerrado<<State>>{
    + cerrar() : Cerrado
}

GestorRegistrarRevisión ..> EventoSismico
EventoSismico "estado" --> "1" Estado
EventoSismico "cambioEstado" -down-> "1..*" CambioEstado
CambioEstado "estado" --> "1" Estado
AutoDetectado ..|> Estado
AutoConfirmado .left.|> Estado
PendienteRevision ..|> Estado
PendienteRevision ..> BloqueadoRevision
Estado <|.. BloqueadoRevision
Estado <|.. EventoSinRevisión
Estado <|.up. DerivadoExperto
Estado <|.. Rechazado
Estado <|.. Confirmado
Estado <|.. PendienteCierre
Estado <|.. Cerrado
BloqueadoRevision ..> Rechazado
EventoSismico ..>BloqueadoRevision
EventoSismico <..BloqueadoRevision
BloqueadoRevision..>CambioEstado
@enduml
@startuml Parte_Dinámica_CU_23_State
skinparam roundcorner 20
' skinparam maxmessagesize 60
autonumber
actor "__:AnalistaEnSismos__" as AES
create boundary "__:PantallaRegistrarResultado__" as PRR
AES --> PRR : opcRegistrarResultadoManual()
PRR -> PRR : abrirVentana()
create control "__:GestorRegistrarResultado__" as GRR
PRR --> GRR : newRevisiónManual()
GRR -> GRR : buscarEventosSísmicosSinRevision()
loop Eventos Sísmicos Auto Detectados
else Mientras existan eventos sísmicos
    entity "__:EventoSísmico__" as ES #LightCoral
    GRR -> ES : esPendienteRevisión()
    entity "__Evento:Estado__" as E
    ES -> E : sosPendienteRevisión()
    GRR -> ES : esAutodetectado()
    ES -> E : sosAutodetectado()
    GRR -> ES : getDatos()
    ES -> ES : getFechaHoraOcurrenciaEvento()
    ES -> ES : getLatitudEpicentro()
    ES -> ES : getLongitudEpicentro()
    ES -> ES : getLatitudHipocentro()
    ES -> ES : getLongitudHipocentro()
    ES -> ES : getValorMagnitud()
end
GRR -> GRR : ordenarEventosSísmicos()
GRR -> PRR : solicitarSelecciónEventoSísmico()
AES -> PRR : tomarSelecciónEventoSísmico()
PRR -> GRR : tomarSelecciónEventoSísmico()
GRR -> GRR : bloquearEventoSísmico() : void
GRR -> GRR : getFechaHoraActual() : Datetime
GRR -> GRR : buscarEmpleadoLogueado() : Empleado
entity "__Actual:Sesión__" as ASS
GRR -> ASS : getUsuarioLogueado() : Empleado 
entity "__Logueado:Usuario__" as US
ASS -> US : getEmpleado() : Empleado
entity "__Selec:EventoSísmico__" as SES
GRR -> SES : bloquear(fechaHora: Datetime, empleado: Empleado) : BloqueadoEnRevisión
participant "__:PendienteRevisión__" as PR
SES -> PR : bloquear(fechaHora: Datetime, empleado: Empleado, cambiosEstado: CambioEstado[], this: EventoSísmico) : BloqueadoEnRevisión
PR -> PR : cerrarCambioEstado() : void
loop Buscar último cambio estado
else Mientras existan cambios de estado
    entity "__:CambioEstado__" as CE #LightCoral
    PR -> CE : esEstadoActual() : boolean
end
entity "__Actual:CambioEstado__" as ACE
PR -> ACE : setFechaHoraFin(fechaHora: Datetime, empleado: Empleado) : void
PR -> PR : crearBloqueadoEnRevisión() : void
create participant "__:BloqueadoRevisión__" as BER
PR --> BER : bloquear() : BloqueadoEnRevisión
PR -> PR: crearCambioEstado() : void
create entity "__Bloqueado:CambioEstado__" as NCE
PR --> NCE: new(fechaHora: Datetime, estado: Estado) : CambioEstado
PR -> SES : setEstado(estado: Estado) : void
PR -> SES : agregarCambioEstado(cambioEstado: CambioEstado) : void
destroy PR
GRR -> GRR : buscarDatosSísmicos()
GRR -> SES : getDatosSísmicos()
loop Valores alcanzados sísmo
else Mientras existan series temporales
    entity "__:SerieTemporal__" as ST #LightCoral
    SES -> ST: getFecha()
    SES -> ST : getMuestrasSismicas()
    entity "__:MuestraSísmica__" as MS
    ST -> MS : getFecha()
    loop Valores muestras sísmicas
    else Mientras existan muestras sísmicas
        ST -> MS : getDetalleMuestraSismica()
        loop Valores detalle muestras sísmicas
        else Mientras existan detalles muestras sísmicas
            entity "__:DetalleMuestraSísmica__" as DMS
            MS -> DMS :  getValor()
            entity "__:TipoDeDato__" as TD
            DMS -> TD :  getDenominación()
            DMS -> TD :  getNombreUnidadMedida()
            DMS -> TD :  getValorUmbral()
        end
    end
end
entity "__:AlcanceSismo__" as AS
SES -> AS : getNombre()
entity "__:ClasificaciónSismo__" as CS
SES -> CS : getNombre()
entity "__:OrigenDeGeneración__" as OG
SES -> OG : getNombre()
GRR -> GRR: ordenarPorCodigo()
GRR -> ST : *getEstacionSismografica()
loop Buscar Sismografo
else mientras haya sismografos
    entity "__:Sismografo__" as S #LightCoral
    ST -> S : sosMiSismografo()
    ST -> S : getDatosEstacion()
    entity "__Sismografo:Estacion Sismologica__" as SSE
    S -> SSE : getCodigo()
    S -> SSE : getNombre()
end

GRR -> GRR : llamarCUGenerarSismograma()
create participant "GenerarSismograma" as GS
GRR -> GS : generarSismograma()
GRR -> PRR : mostrarDatos()
GRR -> PRR : solicitarSelecciónMapa()
AES -> PRR : tomarSelecciónMapa()
PRR -> GRR : tomarSeleccionMapa()
GRR -> PRR : solicitarModificaciónDatosES()
AES -> PRR : tomarModificaciónDatosES()
PRR -> GRR : tomarModificaciónDatosES()
GRR -> PRR : solicitarAcciónSobreEvento()
AES -> PRR : tomarAcciónSobreEvento()
PRR -> GRR : tomarAcciónSobreEvento()
GRR -> GRR : validarDatos()
GRR -> GRR : rechazarEventoSísmico() : void
GRR -> GRR : getFechaHoraActual() : Datetime
entity "__Selec:EventoSísmico__" as SES
GRR -> SES : rechazar(fechaHora: Datetime, empleado: Empleado) : Rechazado
participant "__BloqueadoRevisión__" as BER
SES -> BER : rechazar(fechaHora: Datetime, empleado: Empleado, cambiosEstado: CambioEstado[], this: EventoSísmico) : Rechazado
BER -> BER : cerrarCambioEstado() : void
loop Buscar último cambio estado
else Mientras existan cambios de estado
    BER -> CE : esEstadoActual() : boolean
end
BER -> NCE : setFechaHoraFin(fechaHora: Datetime, empleado: Empleado) : void
BER -> BER : crearEstadoRechazado() : void
create participant "__:Rechazado__" as R
BER --> R : rechazar() : Rechazado
BER -> BER: crearCambioEstado() : void
create entity "__Rechazado:CambioEstado__" as RCE
BER --> RCE : new(fechaHora: Datetime, estado: Estado) : CambioEstado
BER -> SES : setEstado(estado: Estado) : void
BER -> SES : agregarCambioEstado(cambioEstad: CambioEstado) : void
destroy BER
GRR -> GRR : finCU()
@enduml